PathFileType	4	(X/Y/Z)	E:\Qualisys_Data\Carbon_Farble_Plate\Data\Amateur_Runner\S14\T2\S14T2V22_c3d.trc
DataRate	CameraRate	NumFrames	NumMarkers	Units	OrigDataRate	OrigDataStartFrame	OrigNumFrames
200.000000	200.000000	4	39	mm	200.000000	0	316
Frame#	Time	LSHO			RSHO			LICST			RICST			LASIS			LHEEL			RASIS			LTROC			RTROC			SACR			LTH1			LSK4			LTH2			LTH3			RHM5			LSK2			LTH4			RTH1			LTOE			RTH2			RTH3			RTH4			LLEP			RLEP			LSK1			LSK3			RSK1			LHM5			RSK2			LFT1			RSK3			RSK4			LLME			RLME			RTOE			RHEEL			RFT1			RFT2			LFT2			
		X1	Y1	Z1	X2	Y2	Z2	X3	Y3	Z3	X4	Y4	Z4	X5	Y5	Z5	X6	Y6	Z6	X7	Y7	Z7	X8	Y8	Z8	X9	Y9	Z9	X10	Y10	Z10	X11	Y11	Z11	X12	Y12	Z12	X13	Y13	Z13	X14	Y14	Z14	X15	Y15	Z15	X16	Y16	Z16	X17	Y17	Z17	X18	Y18	Z18	X19	Y19	Z19	X20	Y20	Z20	X21	Y21	Z21	X22	Y22	Z22	X23	Y23	Z23	X24	Y24	Z24	X25	Y25	Z25	X26	Y26	Z26	X27	Y27	Z27	X28	Y28	Z28	X29	Y29	Z29	X30	Y30	Z30	X31	Y31	Z31	X32	Y32	Z32	X33	Y33	Z33	X34	Y34	Z34	X35	Y35	Z35	X36	Y36	Z36	X37	Y37	Z37	X38	Y38	Z38	X39	Y39	Z39	

1	0	-3498.828125	1466.361083984375	-476.0475769042969	-3560.82421875	1477.595703125	-184.2951354980469	-3582.76171875	1020.957580566406	-454.6471252441406	-3582.2138671875	1036.235473632812	-180.2781372070312	-3553.27685546875	965.6961669921875	-429.0728759765625	-4207.85546875	408.9805908203125	-350.2744750976562	-3557.762939453125	993.0256958007812	-198.1741943359375	-3709.26123046875	934.9544067382812	-478.07666015625	-3685.112548828125	920.5503540039062	-139.2386627197266	-3719.971923828125	1041.743896484375	-330.8844909667969	-3749.575439453125	707.7824096679688	-473.9102172851562	-4060.01025390625	499.2165222167969	-429.5057678222656	-3815.845458984375	744.212158203125	-444.8282165527344	-3787.557373046875	617.5281372070312	-452.9564819335938	-3361.091064453125	128.5923004150391	-177.1196746826172	-3979.050048828125	555.1658325195312	-445.4237670898438	-3856.09228515625	654.3685913085938	-431.3602294921875	-3470.96240234375	759.082275390625	-151.2194519042969	-4190.97900390625	152.0226898193359	-383.9888916015625	-3538.247802734375	725.1786499023438	-144.8023681640625	-3423.69873046875	673.2669067382812	-176.1769714355469	-3494.5146484375	635.04541015625	-163.5419464111328	-3868.799072265625	577.1445922851562	-444.2351379394531	-3444.622314453125	582.1509399414062	-164.7134857177734	-3932.0107421875	487.7431335449219	-448.0203552246094	-4015.1220703125	429.8585205078125	-437.4720458984375	-3429.459716796875	456.9157104492188	-167.2209014892578	-4224.7646484375	217.1450042724609	-440.6891784667969	-3514.570068359375	458.6004028320312	-164.5536956787109	-4233.41650390625	392.9974670410156	-324.8036804199219	-3439.06005859375	353.8377990722656	-182.3581390380859	-3515.994140625	363.4568176269531	-178.8891448974609	-4181.70751953125	364.3013000488281	-416.2113037109375	-3491.09716796875	181.4033050537109	-205.9764099121094	-3283.92236328125	159.3281402587891	-233.7039947509766	-3543.980224609375	150.4081573486328	-262.7052001953125	-3523.69384765625	123.9066390991211	-292.8440856933594	-3540.468017578125	119.9445495605469	-238.9131011962891	-4242.125	402.7069396972656	-380.6674194335938
2	0.005	-3477.023681640625	1467.135620117188	-474.8549194335938	-3538.96875	1477.041870117188	-183.2945098876953	-3560.61083984375	1021.35107421875	-454.5027465820312	-3561.072265625	1035.830810546875	-180.2788696289062	-3530.10986328125	965.1127319335938	-429.0730895996094	-4191.7158203125	420.2658996582031	-349.5076599121094	-3537.207763671875	992.101318359375	-198.6077728271484	-3685.779052734375	934.482421875	-478.0177001953125	-3663.696533203125	919.3742065429688	-139.4197692871094	-3697.7998046875	1041.511962890625	-330.566650390625	-3726.020263671875	707.84033203125	-474.702392578125	-4039.963134765625	506.5626220703125	-429.2444763183594	-3792.54345703125	743.4879150390625	-445.39697265625	-3763.80078125	617.3447875976562	-454.382568359375	-3319.676513671875	131.3063659667969	-177.2421417236328	-3956.408935546875	559.0958862304688	-445.6965637207031	-3832.503173828125	653.6296997070312	-431.6136169433594	-3450.02734375	755.708740234375	-149.8975677490234	-4177.30712890625	162.597900390625	-386.4073486328125	-3518.75390625	723.5200805664062	-144.8380279541016	-3403.455810546875	669.8958740234375	-176.33935546875	-3476.05859375	633.2596435546875	-163.1875610351562	-3846.96875	578.9312133789062	-445.5395202636719	-3425.57958984375	579.6331787109375	-165.1205596923828	-3911.24853515625	490.7930603027344	-448.3840942382812	-3998.101806640625	436.8519287109375	-437.2442321777344	-3405.68359375	454.3711547851562	-167.2060699462891	-4211.26220703125	229.3679809570312	-443.2593994140625	-3490.16357421875	453.8220520019531	-166.0255126953125	-4215.02490234375	403.6587219238281	-324.9074096679688	-3409.981689453125	353.318603515625	-182.1145629882812	-3489.29833984375	357.7020568847656	-178.9782867431641	-4165.3515625	375.1741943359375	-416.16064453125	-3454.10986328125	177.4621124267578	-205.8416137695312	-3245.38671875	165.5080413818359	-232.9552154541016	-3504.94775390625	143.0157012939453	-263.0888671875	-3483.630859375	118.5500259399414	-293.1664428710938	-3499.681640625	112.8619689941406	-239.4762573242188	-4224.61572265625	413.7423706054688	-379.1931457519531
3	0.01	-3454.792236328125	1466.5947265625	-474.0116271972656	-3518.093505859375	1476.282592773438	-181.9389953613281	-3536.8955078125	1021.580627441406	-453.5970764160156	-3537.06640625	1034.382080078125	-180.7804260253906	-3508.41455078125	964.8956909179688	-429.1925659179688	-4173.220703125	429.6059265136719	-348.443603515625	-3514.0791015625	991.1116333007812	-199.4438171386719	-3662.9443359375	933.9376220703124	-477.9419860839844	-3642.13037109375	917.8799438476562	-139.9484558105469	-3675.531494140625	1040.883422851562	-330.8902893066406	-3702.891845703125	706.9718017578125	-475.2681579589844	-4019.408935546875	513.0524291992188	-428.825439453125	-3769.404052734375	742.2262573242188	-446.0472412109375	-3740.0869140625	616.5552368164062	-454.9881286621094	-3283.499267578125	131.627197265625	-177.6555633544922	-3933.5029296875	562.8749389648438	-445.6620483398438	-3809.6640625	653.2105102539062	-432.7175598144531	-3428.500732421875	754.1348876953125	-149.7587280273438	-4164.52587890625	171.6849517822266	-387.8175964355469	-3498.736572265625	721.6317138671875	-143.6667633056641	-3382.7900390625	668.1884155273438	-175.8798980712891	-3456.6220703125	630.6982421875	-163.2437438964844	-3823.49169921875	578.8800659179688	-446.3614807128906	-3406.3427734375	577.548095703125	-165.2447509765625	-3890.46337890625	492.8262634277344	-450.6476135253906	-3979.1240234375	441.578369140625	-438.2703247070312	-3382.451416015625	453.7236328125	-167.0661163330078	-4196.08056640625	240.5542144775391	-444.1098327636719	-3468.170654296875	448.5526123046875	-166.5639801025391	-4196.1015625	413.1495056152344	-324.0580444335938	-3383.284423828125	350.4562072753906	-182.0685119628906	-3461.682373046875	352.4939575195312	-180.3415222167969	-4147.89599609375	384.67626953125	-415.7397766113281	-3416.656005859375	173.4826812744141	-205.5422821044922	-3208.101318359375	172.6019592285156	-231.8171539306641	-3466.438232421875	136.4012145996094	-263.6080627441406	-3444.432861328125	112.4850463867188	-292.44580078125	-3461.345458984375	106.8992309570312	-240.7552795410156	-4205.76904296875	423.6024780273438	-379.0518188476562
4	0.015	-3431.528076171875	1465.934326171875	-472.8667297363281	-3495.854248046875	1475.522583007812	-181.0183868408203	-3516.24072265625	1021.410888671875	-454.2777404785156	-3516.0537109375	1033.969116210938	-180.6033325195312	-3486.60107421875	965.2049560546876	-429.62109375	-4153.75146484375	438.8209533691406	-347.4310913085938	-3492.7060546875	989.9718017578124	-199.8067321777344	-3640.5869140625	933.2437133789062	-477.6349487304688	-3621.070556640625	916.3385620117188	-140.1888885498047	-3653.861328125	1040.106689453125	-330.6648254394531	-3679.770751953125	706.105224609375	-474.9052429199219	-3997.386962890625	518.85009765625	-428.3622131347656	-3746.361083984375	740.8358154296875	-447.5634155273438	-3717.10302734375	615.737548828125	-455.7115173339844	-3246.208251953125	135.2386322021484	-176.7261352539062	-3910.63818359375	566.40380859375	-445.5691223144531	-3785.67919921875	652.033447265625	-432.9879455566406	-3408.41015625	750.7542114257812	-149.7633056640625	-4148.560546875	182.9921264648438	-391.10205078125	-3478.216552734375	719.8982543945312	-143.382568359375	-3363.4482421875	665.2130737304688	-175.7093505859375	-3437.65771484375	627.9678955078125	-163.0385131835938	-3799.56005859375	578.5374145507812	-447.2339477539062	-3387.13720703125	573.114013671875	-165.3573455810547	-3869.77490234375	495.7567443847656	-451.5093688964844	-3960.24560546875	447.281005859375	-438.5736999511719	-3361.448486328125	450.9786376953125	-166.9945831298828	-4180.97216796875	251.8161010742188	-444.9554748535156	-3444.974853515625	443.3097534179688	-167.8515167236328	-4178.43115234375	424.4008483886719	-323.7654113769531	-3356.04150390625	348.5606384277344	-181.8291473388672	-3435.212158203125	348.1094360351562	-181.0879211425781	-4130.80908203125	395.2408447265625	-415.7804260253906	-3380.58447265625	170.8360900878906	-205.9923706054688	-3172.248046875	179.0163726806641	-230.6317138671875	-3428.76904296875	130.8280487060547	-263.9383239746094	-3404.929931640625	109.1442794799805	-294.4565734863281	-3421.611572265625	100.6327667236328	-240.5946502685547	-4187.859375	434.3799743652344	-377.9280090332031
